<?xml version="1.0" encoding="utf-8"?>
<svg version="1.1" id="Layer_1" xmlns="http://www.w3.org/2000/svg" xmlns:xlink="http://www.w3.org/1999/xlink" x="0px" y="0px"
	 viewBox="0 0 586.7 135.1" style="enable-background:new 0 0 586.7 135.1;" xml:space="preserve">
<style type="text/css">
	.st0{fill:#FFFFFF;}
	.st1{fill-rule:evenodd;clip-rule:evenodd;fill:#FFFFFF;}
</style>
<path class="st0" d="M183.8,26.2l-74.4,80.1h57.3l-4.6,21.2H67.7l3.2-15l75.4-79.6h-54l4.6-21.3H187L183.8,26.2L183.8,26.2z"/>
<path class="st1" d="M251.4,66.1c0,4.3-0.9,8.2-2.7,11.7c-1.8,3.6-4.9,6.6-9.2,9.2s-10,4.6-17.1,6.1s-15.9,2.3-26.5,2.5
	c-0.1,0.3-0.2,0.6-0.2,0.8v0.8c0,1.7,0.3,3.3,0.8,5s1.5,3.2,2.8,4.5s3.1,2.4,5.3,3.3c2.2,0.8,4.9,1.3,8.2,1.3c2,0,4.1-0.2,6.4-0.5
	c2.3-0.3,4.7-0.9,7.1-1.5c2.4-0.7,4.8-1.5,7.2-2.4s4.6-2,6.6-3.1l-4,19.1c-1.7,0.9-3.6,1.7-5.8,2.5s-4.5,1.5-7.1,2.2
	c-2.5,0.6-5.2,1.2-8.1,1.5c-2.9,0.4-5.8,0.6-8.8,0.6c-6.3,0-11.8-0.9-16.3-2.8c-4.5-1.9-8.3-4.3-11.2-7.4s-5.1-6.7-6.4-10.9
	s-2.1-8.6-2.1-13.3c0-7.1,1.2-13.8,3.6-20.1c2.4-6.3,5.8-11.9,10.1-16.7s9.7-8.6,15.9-11.4c6.2-2.8,13.1-4.2,20.7-4.2
	c5.5,0,10.2,0.7,14.1,1.9c3.9,1.3,7,3,9.5,5.2s4.3,4.7,5.4,7.5C250.8,60.1,251.4,63,251.4,66.1L251.4,66.1z M226.8,66.4
	c0-2-0.8-3.7-2.3-5s-3.6-2-6.3-2c-2.4,0-4.7,0.5-6.9,1.5s-4.2,2.4-6.1,4.3c-1.8,1.8-3.4,4-4.7,6.5s-2.3,5.2-2.9,8.1
	c9.8,0.1,17.1-1,22-3.3C224.4,74.2,226.8,70.8,226.8,66.4L226.8,66.4z M338.2,64.4c0,0.8-0.1,1.9-0.3,3.2c-0.2,1.3-0.4,2.7-0.6,4.2
	c-0.2,1.4-0.5,2.9-0.8,4.2c-0.3,1.4-0.5,2.5-0.7,3.5l-10.2,47.8h-25.9l10-47c0.3-1.7,0.6-3.5,1-5.3c0.3-1.8,0.5-3.2,0.5-4.2
	c0-2.6-0.7-4.7-2-6.2c-1.3-1.5-3.3-2.3-6-2.3c-2.2,0-4.6,0.7-7,2.1c-2.4,1.4-4.7,3.2-6.8,5.5c-2.1,2.3-4,4.9-5.6,7.8s-2.7,5.9-3.4,9
	l-8.7,40.9h-26.3l12.4-56.7c0.5-2.5,1-5,1.5-7.5s0.9-4.9,1.3-7.2c0.4-2.3,0.7-4.4,1-6.4s0.5-3.6,0.7-5h25.5
	c-0.2,1.5-0.3,3.1-0.5,4.7c-0.2,1.6-0.4,3.2-0.6,4.7s-0.4,2.8-0.5,4s-0.3,2-0.4,2.5h0.3c1.9-2.5,4.1-4.8,6.5-7s5-4.1,7.6-5.7
	c2.7-1.6,5.5-2.9,8.4-3.8c2.9-0.9,5.8-1.4,8.7-1.4c6.9,0,12.1,1.9,15.7,5.7C336.4,52.2,338.2,57.6,338.2,64.4L338.2,64.4z
	 M429.8,64.4c0,0.8-0.1,1.9-0.3,3.2c-0.2,1.3-0.4,2.7-0.6,4.2c-0.3,1.4-0.5,2.9-0.8,4.2c-0.3,1.4-0.5,2.5-0.7,3.5l-10.2,47.8h-25.9
	l10.1-47.2c0.3-1.7,0.6-3.5,1-5.3c0.3-1.8,0.5-3.2,0.5-4.2c0-2.6-0.7-4.7-2-6.2c-1.3-1.5-3.3-2.3-6-2.3c-2.2,0-4.6,0.7-7,2.1
	c-2.4,1.4-4.7,3.2-6.8,5.5c-2.1,2.3-4,4.9-5.6,7.8s-2.7,5.9-3.4,9l-8.7,40.9h-26.3l12.4-56.7c0.5-2.5,1-5,1.5-7.5s0.9-4.9,1.3-7.2
	s0.7-4.4,1-6.4s0.5-3.6,0.7-5h25.5c-0.2,1.5-0.3,3.1-0.5,4.7c-0.2,1.6-0.4,3.2-0.6,4.7s-0.4,2.8-0.5,4s-0.3,2-0.4,2.5h0.3
	c1.9-2.5,4.1-4.8,6.5-7s5-4.1,7.6-5.7s5.5-2.9,8.4-3.8c2.9-0.9,5.8-1.4,8.7-1.4c6.9,0,12.1,1.9,15.7,5.7
	C428.1,52.2,429.8,57.6,429.8,64.4L429.8,64.4z M479.6,18.1c0,2.1-0.4,4-1.2,5.7s-1.9,3.1-3.3,4.3c-1.4,1.2-3,2.1-4.9,2.8
	c-1.9,0.6-3.9,1-6.1,1c-2.1,0-4-0.3-5.8-0.9s-3.3-1.5-4.6-2.6s-2.3-2.4-3-3.9s-1.1-3.1-1.1-4.9c0-2.1,0.4-4,1.2-5.7
	c0.8-1.7,1.9-3.1,3.3-4.3s3-2.1,5-2.8s4-1,6.2-1c2.1,0,4,0.3,5.7,0.9s3.3,1.5,4.5,2.6c1.3,1.1,2.3,2.4,3,3.9
	C479.3,14.6,479.6,16.3,479.6,18.1z M471.1,126.7c-1,0.3-2.1,0.5-3.4,0.8s-2.6,0.5-4.1,0.8c-1.4,0.3-2.9,0.4-4.5,0.6
	c-1.6,0.1-3.1,0.2-4.6,0.2c-3.6,0-6.8-0.5-9.4-1.4c-2.6-0.9-4.7-2.3-6.4-4s-2.9-3.7-3.7-6.1c-0.8-2.3-1.2-4.9-1.2-7.7
	c0-1.2,0.1-2.5,0.2-4s0.3-3,0.5-4.6s0.5-3.2,0.8-4.8s0.6-3.2,0.9-4.7c0.2-0.9,0.6-2.6,1.1-5.1c0.5-2.4,1.1-5.3,1.8-8.4
	s1.4-6.5,2.2-10.1c0.8-3.5,1.5-6.9,2.2-10.1c0.7-3.2,1.3-6,1.8-8.5s0.9-4.1,1.1-5h26.2l-10,46.5c-0.4,1.9-0.9,4-1.4,6.3
	s-0.7,4.4-0.7,6.1c0,2.1,0.6,3.5,2,4.3c1.3,0.8,2.8,1.2,4.5,1.2c1.4,0,2.9-0.2,4.3-0.4c1.4-0.3,2.8-0.7,4-1.2
	c-0.7,3.2-1.4,6.4-2,9.6C472.5,120.3,471.8,123.5,471.1,126.7L471.1,126.7z M563.3,77.5c0,3.8-0.4,7.8-1.2,11.8s-2,8-3.6,11.8
	s-3.8,7.5-6.3,10.9s-5.7,6.4-9.4,9s-7.9,4.6-12.8,6.1c-4.8,1.5-10.3,2.3-16.5,2.3s-11.6-0.9-16.2-2.7c-4.6-1.8-8.4-4.2-11.4-7.3
	c-3-3.1-5.2-6.8-6.7-11.1s-2.2-8.9-2.2-13.9c0-4,0.4-8,1.2-12.2s2.1-8.1,3.8-11.9c1.7-3.8,3.9-7.4,6.6-10.8c2.7-3.4,5.9-6.3,9.6-8.8
	s7.9-4.5,12.7-5.9c4.8-1.5,10.1-2.2,16.1-2.2c5.8,0,11,0.8,15.5,2.5c4.5,1.6,8.3,4,11.4,7s5.4,6.7,7,11
	C562.5,67.5,563.3,72.3,563.3,77.5L563.3,77.5z M537.2,77.9c0-2.3-0.3-4.3-0.8-6.3c-0.5-1.9-1.3-3.6-2.4-4.9s-2.4-2.5-3.9-3.2
	c-1.5-0.8-3.3-1.2-5.3-1.2c-3.4,0-6.5,1-9.2,2.9s-5,4.4-6.8,7.5c-1.9,3.1-3.3,6.5-4.3,10.3s-1.5,7.7-1.5,11.5
	c0,4.9,1.2,8.7,3.5,11.4c2.3,2.7,5.3,4,9,4c3.5,0,6.7-0.9,9.4-2.8s5-4.3,6.8-7.4c1.8-3,3.2-6.5,4.1-10.3
	C536.8,85.6,537.2,81.7,537.2,77.9z"/>
<path class="st0" d="M78.4,30.1c0,13.1-10.8,23.8-24.1,23.8S30.2,43.2,30.2,30.1S41,6.3,54.3,6.3S78.4,17,78.4,30.1z M34.7,66.8
	c0,7.9-6.5,14.3-14.5,14.3c-8,0.1-14.5-6.4-14.5-14.3s6.5-14.3,14.5-14.3S34.7,58.9,34.7,66.8z"/>
<g>
	<path class="st0" d="M571.1,52.6c-2.7,0-5-1-7-2.9c-2-1.8-3-4.1-3-6.9c0-2.7,1-5.1,3-7c2-1.9,4.4-2.8,7-2.8c2.8,0,5.1,0.9,7.1,2.8
		c1.9,2,2.9,4.4,2.9,7c0,2.7-1,5.1-2.8,6.9C576.2,51.6,573.9,52.6,571.1,52.6z M571.1,34.4c-2.3,0-4.2,0.8-6,2.4
		c-1.7,1.6-2.5,3.6-2.5,6c0,2.4,0.8,4.3,2.5,5.8c1.7,1.7,3.7,2.5,6,2.5c2.4,0,4.3-0.8,6-2.5c1.6-1.6,2.4-3.5,2.4-5.9
		c0-2.3-0.8-4.3-2.4-6C575.4,35.1,573.5,34.4,571.1,34.4L571.1,34.4z"/>
	<path class="st0" d="M576.8,48.4h-2l-3.9-4.6h-2.2v4.6h-1.6V36.8h3.3c0.7,0,1.3,0,1.8,0.1c0.5,0.1,0.9,0.3,1.3,0.5
		c0.4,0.3,0.8,0.6,1,1s0.4,0.9,0.4,1.5c0,0.8-0.2,1.5-0.6,2.1s-1,1-1.8,1.3L576.8,48.4L576.8,48.4z M573.1,40c0-0.3-0.1-0.6-0.2-0.9
		s-0.3-0.5-0.6-0.7c-0.2-0.2-0.5-0.3-0.8-0.3s-0.7-0.1-1.1-0.1h-1.8v4.4h1.6c0.5,0,0.9,0,1.3-0.1s0.7-0.3,0.9-0.5s0.4-0.5,0.5-0.8
		C573.1,40.8,573.1,40.5,573.1,40z"/>
</g>
</svg>
